<?xml version='1.0' encoding='UTF-8' standalone='no'?>
<!-- Created with Fritzing (http://www.fritzing.org/) -->
<svg xmlns="http://www.w3.org/2000/svg" width="2.69814in" x="0in" version="1.2" y="0in"  height="2.09999in" viewBox="0 0 194.266 151.199" baseProfile="tiny" xmlns:svg="http://www.w3.org/2000/svg">
 <g transform="matrix(-1, 0, 0, 1, 194.266, 0)">
  <g partID="12140">
   <g id="board">
    <rect width="193.69" x="0.288" y="0.288" fill="none" height="150.623" stroke="black" fill-opacity="0.5" id="boardoutline" stroke-width="0.5"/>
   </g>
  </g>
  <g partID="56221">
   <g transform="translate(-0.264101,0)">
    <g  id="copper1">
     <g  id="copper0">
      <g fill="none" cx="151.384"  cy="144" stroke="black" id="0" r="1.61" stroke-width="0.8113"/>
      <g fill="none" cx="158.583"  cy="144" stroke="black" id="1" r="1.61" stroke-width="0.8113"/>
      <g fill="none" cx="165.786"  cy="144" stroke="black" id="2" r="1.61" stroke-width="0.8113"/>
      <g fill="none" cx="172.985"  cy="144" stroke="black" id="3" r="1.61" stroke-width="0.8113"/>
      <g fill="none" cx="180.184"  cy="144" stroke="black" id="4" r="1.61" stroke-width="0.8113"/>
      <g fill="none" cx="118.263"  cy="7.2" stroke="black" id="5" r="1.61" stroke-width="0.8113"/>
      <g fill="none" cx="111.065"  cy="7.2" stroke="black" id="6" r="1.61" stroke-width="0.8113"/>
      <g fill="none" cx="103.864"  cy="7.2" stroke="black" id="7" r="1.61" stroke-width="0.8113"/>
      <g fill="none" cx="96.664"  cy="7.2" stroke="black" id="8" r="1.61" stroke-width="0.8113"/>
      <g fill="none" cx="89.464"  cy="7.2" stroke="black" id="9" r="1.61" stroke-width="0.8113"/>
      <g fill="none" cx="82.264"  cy="7.2" stroke="black" id="10" r="1.61" stroke-width="0.8113"/>
      <g fill="none" cx="75.064"  cy="7.2" stroke="black" id="11" r="1.61" stroke-width="0.8113"/>
      <g fill="none" cx="67.864"  cy="7.2" stroke="black" id="12" r="1.61" stroke-width="0.8113"/>
      <g fill="none" cx="60.664"  cy="7.2" stroke="black" id="13" r="1.61" stroke-width="0.8113"/>
      <g fill="none" cx="53.463"  cy="7.2" stroke="black" id="14" r="1.61" stroke-width="0.8113"/>
      <g fill="none" cx="180.184"  cy="7.2" stroke="black" id="15" r="1.61" stroke-width="0.8113"/>
      <g fill="none" cx="172.985"  cy="7.2" stroke="black" id="16" r="1.61" stroke-width="0.8113"/>
      <g fill="none" cx="165.786"  cy="7.2" stroke="black" id="17" r="1.61" stroke-width="0.8113"/>
      <g fill="none" cx="158.583"  cy="7.2" stroke="black" id="18" r="1.61" stroke-width="0.8113"/>
      <g fill="none" cx="151.384"  cy="7.2" stroke="black" id="19" r="1.61" stroke-width="0.8113"/>
      <g fill="none" cx="144.184"  cy="7.2" stroke="black" id="20" r="1.61" stroke-width="0.8113"/>
      <g fill="none" cx="136.985"  cy="7.2" stroke="black" id="21" r="1.61" stroke-width="0.8113"/>
      <g fill="none" cx="129.784"  cy="7.2" stroke="black" id="22" r="1.61" stroke-width="0.8113"/>
      <g fill="none" cx="86.584"  cy="144" stroke="black" id="23" r="1.61" stroke-width="0.8113"/>
      <g fill="none" cx="79.384"  cy="144" stroke="black" id="24" r="1.61" stroke-width="0.8113"/>
      <g fill="none" cx="93.784"  cy="144" stroke="black" id="25" r="1.61" stroke-width="0.8113"/>
      <g fill="none" cx="100.985"  cy="144" stroke="black" id="26" r="1.61" stroke-width="0.8113"/>
      <g fill="none" cx="108.184"  cy="144" stroke="black" id="27" r="1.61" stroke-width="0.8113"/>
      <g fill="none" cx="115.384"  cy="144" stroke="black" id="28" r="1.61" stroke-width="0.8113"/>
      <g fill="none" cx="122.583"  cy="144" stroke="black" id="29" r="1.61" stroke-width="0.8113"/>
      <g fill="none" cx="129.784"  cy="144" stroke="black" id="30" r="1.61" stroke-width="0.8113"/>
      <g fill="none" cx="144.184"  cy="144" stroke="black" id="31" r="1.61" stroke-width="0.8113"/>
     </g>
    </g>
   </g>
  </g>
  <g partID="56251">
   <g transform="translate(71.704,81.9)">
    <g transform="matrix(0,-1,1,0,0,0)">
     <g  id="copper1">
      <g width="3.96" x="0.72" y="1.116" fill="none"  height="3.96" stroke="black" id="32" stroke-width="1.44"/>
      <g fill="none" cx="2.7"  cy="3.096" stroke="black" r="1.98" id="33" stroke-width="1.44"/>
      <g fill="none" cx="31.5"  cy="3.096" stroke="black" r="1.98" id="34" stroke-width="1.44"/>
     </g>
    </g>
   </g>
  </g>
  <g partID="56281">
   <g transform="translate(100.504,81.9)">
    <g transform="matrix(0,-1,1,0,0,0)">
     <g  id="copper1">
      <g width="3.96" x="0.72" y="1.116" fill="none"  height="3.96" stroke="black" id="35" stroke-width="1.44"/>
      <g fill="none" cx="2.7"  cy="3.096" stroke="black" r="1.98" id="36" stroke-width="1.44"/>
      <g fill="none" cx="31.5"  cy="3.096" stroke="black" r="1.98" id="37" stroke-width="1.44"/>
     </g>
    </g>
   </g>
  </g>
  <g partID="56301">
   <g transform="translate(112.388,104.346)">
    <g transform="matrix(-1,0,0,-1,0,0)">
     <g  id="copper1">
      <g fill="none" cx="8.7876"  cy="10.6336" stroke="black" id="38" r="1.7008" stroke-width="1.13384"/>
      <g width="3.4016" x="7.0868" y="8.9328" fill="none"  height="3.4016" stroke="black" id="39" stroke-width="1.13384"/>
      <g fill="none" cx="8.7876"  cy="3.5464" stroke="black" id="40" r="1.7008" stroke-width="1.13384"/>
     </g>
    </g>
   </g>
  </g>
  <g partID="56331">
   <g transform="translate(83.5876,104.346)">
    <g transform="matrix(-1,0,0,-1,0,0)">
     <g  id="copper1">
      <g fill="none" cx="8.7876"  cy="10.6336" stroke="black" id="41" r="1.7008" stroke-width="1.13384"/>
      <g width="3.4016" x="7.0868" y="8.9328" fill="none"  height="3.4016" stroke="black" id="42" stroke-width="1.13384"/>
      <g fill="none" cx="8.7876"  cy="3.5464" stroke="black" id="43" r="1.7008" stroke-width="1.13384"/>
     </g>
    </g>
   </g>
  </g>
  <g partID="56381">
   <g transform="translate(136,68.976)">
    <g transform="matrix(0,1,-1,0,0,0)">
     <g  id="copper1">
      <g  id="copper0">
       <g width="4.464" x="0.72" y="1.368" fill="none"  height="4.464" stroke="black" id="44" stroke-width="1.44"/>
       <g fill="none" cx="3.024"  cy="3.6" stroke="black" id="45" r="2.232" stroke-width="1.44"/>
       <g fill="none" cx="24.48"  cy="3.6" stroke="black" id="46" r="2.232" stroke-width="1.44"/>
      </g>
     </g>
    </g>
   </g>
  </g>
  <g partID="56461">
   <g transform="translate(150.688,125.712)">
    <g transform="matrix(0,-1,1,0,0,0)">
     <g  id="copper1">
      <g  id="copper0">
       <g width="5.184" x="0.72" y="0.72" fill="none"  height="5.184" stroke="black" id="47" stroke-width="1.44"/>
       <g fill="none" cx="3.312"  cy="3.312" stroke="black" id="48" r="2.592" stroke-width="1.44"/>
       <g fill="none" cx="24.912"  cy="3.312" stroke="black" id="49" r="2.592" stroke-width="1.44"/>
      </g>
     </g>
    </g>
   </g>
  </g>
  <g partID="59120">
   <g transform="translate(151.874,88.6677)">
    <g transform="matrix(0,-1,1,0,0,0)">
     <g  id="copper1">
      <rect width="3.40157" x="0.566929" y="0.566929" fill="black"  height="3.11811" stroke="none" fill-opacity="1" id="50" stroke-width="0"/>
      <rect width="3.40157" x="5.38583" y="0.566929" fill="black"  height="3.11811" stroke="none" fill-opacity="1" id="51" stroke-width="0"/>
     </g>
    </g>
   </g>
  </g>
  <g partID="59380">
   <g transform="translate(134.668,117.326)">
    <g transform="matrix(-1,0,0,-1,0,0)">
     <g  id="copper1">
      <rect width="3.40157" x="0.566929" y="0.566929" fill="black"  height="3.11811" stroke="none" fill-opacity="1" id="52" stroke-width="0"/>
      <rect width="3.40157" x="5.38583" y="0.566929" fill="black"  height="3.11811" stroke="none" fill-opacity="1" id="53" stroke-width="0"/>
     </g>
    </g>
   </g>
  </g>
  <g partID="63640">
   <g transform="translate(172.34,125.235)">
    <g transform="matrix(0,-1,1,0,0,0)">
     <g  id="copper1">
      <rect width="4.53543" x="0.566929" y="0.566929" fill="black"  height="5.38583" stroke="none" fill-opacity="1" id="54" stroke-width="0"/>
      <rect width="4.53543" x="9.35433" y="0.566929" fill="black"  height="5.38583" stroke="none" fill-opacity="1" id="55" stroke-width="0"/>
     </g>
    </g>
   </g>
  </g>
 </g>
</svg>
